<svg
    version="1.2"
    baseProfile="tiny"
    xmlns="http://www.w3.org/2000/svg"
    x="0px"
    y="0px"
    viewBox="0 0 596.8 181.6"
    overflow="visible"
    className="w-3/4 hidden"
    >
    <g id="Layer_2">
        <rect
        x="209.3"
        y="33.1"
        fill="none"
        width="397.9"
        height="92.7"
        />
        <text
        transform="matrix(1 0 0 1 209.2617 123.6596)"
        fontFamily="Samarkan"
        fontSize="100px"
        >
        Tiffinwala
        </text>
    </g>
    <g id="Layer_3">
        <path
        fill="none"
        stroke="#000000"
        strokeWidth="6"
        strokeMiterlimit="10"
        d="M142.2,24.7C125.6,9.4,105,2.2,82.9,3.1
            c-22.5,0.8-43.3,10.6-58.4,28C-8.2,68.9-3,130.5,36.1,161.3c28.2,22.3,68.9,23,98,1.9C178.3,131.2,182.7,62,142.2,24.7z"
        />
        <path
        d="M77.3,43.6c2.1-0.2,16.5-0.1,18.5,0.2c4.6,0.7,12.3,4.6,15.8,7.8c3.9,3.5,9,11.3,6.4,16.5c-31.9,0-31.9,0-63.9,0
            C51.8,64.6,55.6,57,58,53.9C62.1,48.8,71,44.2,77.3,43.6z"
        />
        <path
        fill="#FFFFFF"
        d="M111.2,63.3c-0.6,0-1-0.4-1.2-0.9c-3.7-10.1-19.6-12.4-28.7-11.7c-7.7,0.6-18.2,4.6-21.1,12.6
            c0,0-0.1,0-0.1,0c-1,0.2-1.7-0.9-1.3-1.8c8.6-19.1,45.5-18.7,54.2,0c0.4,0.8-0.2,1.8-1.2,1.8H111.2z"
        />
        <g>
        <path
            d="M111.5,127.2c1.5-0.9,1.5-3.3,0.9-4.8c-26.2-0.1-26.2-0.1-52.4-0.2c-0.4,0.2-0.9,3.9,0.9,5c-2.6,1-10.6-1.7-10,3.4
            c0.1,0.9,1.2,1.8,2,2.1c10.4-0.6,62.2,0.7,66.4,0c1.7-0.3,2.9-2,2.2-3.8C120.4,126.1,113.8,128.1,111.5,127.2z"
        />
        <path
            d="M134.9,69.5c-0.8-6.4-7.6-4.9-8.1-2.5c-0.6,3.2,0.3,4.5,3.3,4.4c0.1-0.5,0.3-0.8,0.5-1.1c-0.2,0.3-0.4,0.6-0.5,1.1
            c-0.2,0.8,0.2,5-0.1,5.2c-5.5,0-5.5,0-11,0c-0.2-2.3-0.2-2.3-0.4-4.5c-32.2,0-32.2,0-64.5,0c0,0,0,0,0,0c-0.1,0-0.2,0-0.3,0
            c-0.2,2.3-0.2,2.3-0.4,4.5c-5.5,0-5.5,0-11,0c-0.3-0.2,0-4.4-0.1-5.2c3,0.1,4-1.3,3.3-4.4c-0.5-2.4-7.3-3.9-8.1,2.5
            c-2,15.9,4.4,12,16,13.1c0.6,7.7-0.8,27.9-0.2,32.7c0.3,2.7,2,5.1,4.7,5.5c2.4,0.4,16.2,0.2,29.8,0c12.1,0.2,23.6,0.3,26.4,0
            c0,0,0.1,0,0.2,0c0,0,0.1,0,0.1,0c0,0,0,0,0,0c2.7-0.4,4.4-2.9,4.7-5.5c0.6-4.7-0.8-25-0.2-32.7C130.6,81.5,136.9,85.4,134.9,69.5
            z"
        />
        </g>
        <path
        d="M93.6,37.2c-0.4-2.6-2.7-3.6-5.2-4c-0.1,0-0.1,0-0.2,0c-3.1-0.4-9.3-0.3-9.9,4c-0.4,2.8,1,4.2,2.3,3.9c0.2,0,0.5,0,0.8-0.1
            c2.1-0.6-0.7-2.3,3.5-2.8c0.6-0.1,1.3,0,2,0c4.2,0.5,1.4,2.2,3.5,2.8c0.2,0.1,0.4,0.1,0.6,0.1C92.5,41.6,94,40.2,93.6,37.2z"
        />
    </g>
</svg>