          <svg
            version="1.2"
            baseProfile="tiny"
            id="Layer_1"
            xmlns="http://www.w3.org/2000/svg"
            x="0px"
            y="0px"
            viewBox="0 0 250 250"
            overflow="visible"
            width="250" // Half the original width
            height="250" // Half the original height
            className="relative mx-auto z-10"
          >
            <g>
              <path
                fill="none"
                stroke="#000000"
                strokeWidth="6"
                strokeMiterlimit="10"
                d="M180.9,54c-16.6-15.3-37.2-22.5-59.3-21.7
                  c-22.5,0.8-43.3,10.6-58.4,28c-32.7,37.8-27.5,99.4,11.5,130.2c28.2,22.3,68.9,23,98,1.9C217,160.5,221.4,91.3,180.9,54z"
              />
              <path
                d="M116,72.9c2.1-0.2,16.5-0.1,18.5,0.2c4.6,0.7,12.3,4.6,15.8,7.8c3.9,3.5,9,11.3,6.4,16.5c-31.9,0-31.9,0-63.9,0
                  c-2.4-3.5,1.4-11.1,3.8-14.2C100.8,78.1,109.7,73.5,116,72.9z"
              />
              <path
                fill="#FFFFFF"
                d="M149.9,92.6c-0.6,0-1-0.4-1.2-0.9C145,81.6,129.1,79.3,119.9,80c-7.7,0.6-18.2,4.6-21.1,12.6
                  c0,0-0.1,0-0.1,0c-1,0.2-1.7-0.9-1.3-1.8c8.6-19.1,45.5-18.7,54.2,0c0.4,0.8-0.2,1.8-1.2,1.8H149.9z"
              />
              <path
                d="M150.2,156.5c1.5-0.9,1.5-3.3,0.9-4.8c-26.2-0.1-26.2-0.1-52.4-0.2c-0.4,0.2-0.9,3.9,0.9,5c-2.6,1-10.6-1.7-10,3.4
                  c0.1,0.9,1.2,1.8,2,2.1c10.4-0.6,62.2,0.7,66.4,0c1.7-0.3,2.9-2,2.2-3.8C159.1,155.4,152.5,157.4,150.2,156.5z"
              />
              <path
                d="M173.6,98.8c-0.8-6.4-7.6-4.9-8.1-2.5c-0.6,3.2,0.3,4.5,3.3,4.4c0.1-0.5,0.3-0.8,0.5-1.1c-0.2,0.3-0.4,0.6-0.5,1.1
                  c-0.2,0.8,0.2,5-0.1,5.2c-5.5,0-5.5,0-11,0c-0.2-2.3-0.2-2.3-0.4-4.5c-32.2,0-32.2,0-64.5,0c0,0,0,0,0,0c-0.1,0-0.2,0-0.3,0
                  c-0.2,2.3-0.2,2.3-0.4,4.5c-5.5,0-5.5,0-11,0c-0.3-0.2,0-4.4-0.1-5.2c3,0.1,4-1.3,3.3-4.4c-0.5-2.4-7.3-3.9-8.1,2.5
                  c-2,15.9,4.4,12,16,13.1c0.6,7.7-0.8,27.9-0.2,32.7c0.3,2.7,2,5.1,4.7,5.5c2.4,0.4,16.2,0.2,29.8,0c12.1,0.2,23.6,0.3,26.4,0
                  c0,0,0.1,0,0.2,0c0,0,0.1,0,0.1,0c0,0,0,0,0,0c2.7-0.4,4.4-2.9,4.7-5.5c0.6-4.7-0.8-25-0.2-32.7
                  C169.3,110.8,175.6,114.7,173.6,98.8z"
              />
              <path
                d="M132.3,66.5c-0.4-2.6-2.7-3.6-5.2-4c-0.1,0-0.1,0-0.2,0c-3.1-0.4-9.3-0.3-9.9,4c-0.4,2.8,1,4.2,2.3,3.9
                  c0.2,0,0.5,0,0.8-0.1c2.1-0.6-0.7-2.3,3.5-2.8c0.6-0.1,1.3,0,2,0c4.2,0.5,1.4,2.2,3.5,2.8c0.2,0.1,0.4,0.1,0.6,0.1
                  C131.2,70.8,132.7,69.5,132.3,66.5z"
              />
            </g>
</svg>